<svg width="175" height="30" viewBox="0 0 175 19" fill="none" xmlns="http://www.w3.org/2000/svg"><path d="M10.688 9.36c.976.208 1.76.696 2.352 1.464.592.752.888 1.616.888 2.592 0 1.408-.496 2.528-1.488 3.36-.976.816-2.344 1.224-4.104 1.224H.488V1.152h7.584c1.712 0 3.048.392 4.008 1.176.976.784 1.464 1.848 1.464 3.192 0 .992-.264 1.816-.792 2.472-.512.656-1.2 1.112-2.064 1.368zM4.592 7.968H7.28c.672 0 1.184-.144 1.536-.432.368-.304.552-.744.552-1.32 0-.576-.184-1.016-.552-1.32-.352-.304-.864-.456-1.536-.456H4.592v3.528zm3.024 6.72c.688 0 1.216-.152 1.584-.456.384-.32.576-.776.576-1.368 0-.592-.2-1.056-.6-1.392-.384-.336-.92-.504-1.608-.504H4.592v3.72h3.024zm12.676-3.408c0-1.376.256-2.584.768-3.624.528-1.04 1.24-1.84 2.136-2.4.896-.56 1.896-.84 3-.84.944 0 1.768.192 2.472.576.72.384 1.272.888 1.656 1.512V4.608h4.104V18h-4.104v-1.896c-.4.624-.96 1.128-1.68 1.512-.704.384-1.528.576-2.472.576-1.088 0-2.08-.28-2.976-.84-.896-.576-1.608-1.384-2.136-2.424-.512-1.056-.768-2.272-.768-3.648zm10.032.024c0-1.024-.288-1.832-.864-2.424a2.73 2.73 0 00-2.064-.888c-.816 0-1.512.296-2.088.888-.56.576-.84 1.376-.84 2.4s.28 1.84.84 2.448c.576.592 1.272.888 2.088.888a2.73 2.73 0 002.064-.888c.576-.592.864-1.4.864-2.424zm11.057 0c0-1.392.28-2.608.84-3.648a6.017 6.017 0 012.376-2.4c1.024-.56 2.192-.84 3.504-.84 1.68 0 3.08.44 4.2 1.32 1.136.88 1.88 2.12 2.232 3.72h-4.368c-.368-1.024-1.08-1.536-2.136-1.536-.752 0-1.352.296-1.8.888-.448.576-.672 1.408-.672 2.496s.224 1.928.672 2.52c.448.576 1.048.864 1.8.864 1.056 0 1.768-.512 2.136-1.536h4.368c-.352 1.568-1.096 2.8-2.232 3.696-1.136.896-2.536 1.344-4.2 1.344-1.312 0-2.48-.28-3.504-.84a6.017 6.017 0 01-2.376-2.4c-.56-1.04-.84-2.256-.84-3.648zM69.713 18l-4.08-5.616V18h-4.104V.24h4.104v9.816l4.056-5.448h5.064l-5.568 6.72L74.8 18h-5.088z" fill="#222"/><path d="M89.757 18l-3.504-6.36h-.984V18h-4.104V1.152h6.888c1.328 0 2.456.232 3.384.696.944.464 1.648 1.104 2.112 1.92.464.8.696 1.696.696 2.688 0 1.12-.32 2.12-.96 3-.624.88-1.552 1.504-2.784 1.872L94.389 18h-4.632zm-4.488-9.264h2.544c.752 0 1.312-.184 1.68-.552.384-.368.576-.888.576-1.56 0-.64-.192-1.144-.576-1.512-.368-.368-.928-.552-1.68-.552h-2.544v4.176zm22.448 9.456c-1.312 0-2.496-.28-3.552-.84a6.253 6.253 0 01-2.472-2.4c-.592-1.04-.888-2.256-.888-3.648 0-1.376.304-2.584.912-3.624a6.166 6.166 0 012.496-2.424c1.056-.56 2.24-.84 3.552-.84 1.312 0 2.496.28 3.552.84a6.166 6.166 0 012.496 2.424c.608 1.04.912 2.248.912 3.624s-.312 2.592-.936 3.648a6.172 6.172 0 01-2.52 2.4c-1.056.56-2.24.84-3.552.84zm0-3.552c.784 0 1.448-.288 1.992-.864.56-.576.84-1.4.84-2.472s-.272-1.896-.816-2.472a2.561 2.561 0 00-1.968-.864c-.8 0-1.464.288-1.992.864-.528.56-.792 1.384-.792 2.472 0 1.072.256 1.896.768 2.472a2.561 2.561 0 001.968.864zm13.169-3.36c0-1.376.256-2.584.768-3.624.528-1.04 1.24-1.84 2.136-2.4.896-.56 1.896-.84 3-.84.944 0 1.768.192 2.472.576.72.384 1.272.888 1.656 1.512V4.608h4.104V18h-4.104v-1.896c-.4.624-.96 1.128-1.68 1.512-.704.384-1.528.576-2.472.576-1.088 0-2.08-.28-2.976-.84-.896-.576-1.608-1.384-2.136-2.424-.512-1.056-.768-2.272-.768-3.648zm10.032.024c0-1.024-.288-1.832-.864-2.424a2.73 2.73 0 00-2.064-.888c-.816 0-1.512.296-2.088.888-.56.576-.84 1.376-.84 2.4s.28 1.84.84 2.448c.576.592 1.272.888 2.088.888a2.73 2.73 0 002.064-.888c.576-.592.864-1.4.864-2.424zm11.057-.024c0-1.376.256-2.584.768-3.624.528-1.04 1.24-1.84 2.136-2.4.896-.56 1.896-.84 3-.84.88 0 1.68.184 2.4.552.736.368 1.312.864 1.728 1.488V.24h4.104V18h-4.104v-1.92c-.384.64-.936 1.152-1.656 1.536-.704.384-1.528.576-2.472.576-1.104 0-2.104-.28-3-.84-.896-.576-1.608-1.384-2.136-2.424-.512-1.056-.768-2.272-.768-3.648zm10.032.024c0-1.024-.288-1.832-.864-2.424a2.73 2.73 0 00-2.064-.888c-.816 0-1.512.296-2.088.888-.56.576-.84 1.376-.84 2.4s.28 1.84.84 2.448c.576.592 1.272.888 2.088.888a2.73 2.73 0 002.064-.888c.576-.592.864-1.4.864-2.424zm17.321 6.888c-1.168 0-2.208-.2-3.12-.6-.912-.4-1.632-.944-2.16-1.632a4.386 4.386 0 01-.888-2.352h4.056c.048.464.264.84.648 1.128.384.288.856.432 1.416.432.512 0 .904-.096 1.176-.288.288-.208.432-.472.432-.792 0-.384-.2-.664-.6-.84-.4-.192-1.048-.4-1.944-.624-.96-.224-1.76-.456-2.4-.696a4.309 4.309 0 01-1.656-1.176c-.464-.544-.696-1.272-.696-2.184 0-.768.208-1.464.624-2.088.432-.64 1.056-1.144 1.872-1.512.832-.368 1.816-.552 2.952-.552 1.68 0 3 .416 3.96 1.248.976.832 1.536 1.936 1.68 3.312h-3.792a1.617 1.617 0 00-.624-1.104c-.336-.272-.784-.408-1.344-.408-.48 0-.848.096-1.104.288a.851.851 0 00-.384.744c0 .384.2.672.6.864.416.192 1.056.384 1.92.576.992.256 1.8.512 2.424.768.624.24 1.168.64 1.632 1.2.48.544.728 1.28.744 2.208 0 .784-.224 1.488-.672 2.112-.432.608-1.064 1.088-1.896 1.44-.816.352-1.768.528-2.856.528z" fill="#3FD0D4"/></svg>